<svg width="12" height="18" viewBox="0 0 12 18" fill="none" xmlns="http://www.w3.org/2000/svg">
<path d="M0.0312157 2.11642V0.3047C0.0312157 0.147669 0.211685 0.0609504 0.33356 0.157044L10.8992 8.40939C10.989 8.4792 11.0616 8.56859 11.1116 8.67075C11.1615 8.7729 11.1875 8.88512 11.1875 8.99884C11.1875 9.11256 11.1615 9.22478 11.1116 9.32693C11.0616 9.42909 10.989 9.51848 10.8992 9.58829L0.33356 17.8406C0.209341 17.9367 0.0312157 17.85 0.0312157 17.693V15.8813C0.0312157 15.7664 0.0851212 15.6563 0.174184 15.586L8.61168 9.00001L0.174184 2.41173C0.0851212 2.34142 0.0312157 2.23126 0.0312157 2.11642Z" fill="white"/>
</svg>
